<svg xmlns="http://www.w3.org/2000/svg" xmlns:xlink="http://www.w3.org/1999/xlink" width="570" zoomAndPan="magnify" viewBox="0 0 427.5 251.250001" height="335" preserveAspectRatio="xMidYMid meet" version="1.0"><defs><g/><clipPath id="baa7e7c415"><path d="M 0.386719 0 L 426.613281 0 L 426.613281 250.503906 L 0.386719 250.503906 Z M 0.386719 0 " clip-rule="nonzero"/></clipPath><clipPath id="0666b695f1"><path d="M 133 0 L 279 0 L 279 161.519531 L 133 161.519531 Z M 133 0 " clip-rule="nonzero"/></clipPath><clipPath id="ac602c49dc"><path d="M 105 22 L 319.398438 22 L 319.398438 141 L 105 141 Z M 105 22 " clip-rule="nonzero"/></clipPath></defs><g clip-path="url(#baa7e7c415)"><path fill="#ffffff" d="M 0.386719 0 L 426.613281 0 L 426.613281 250.503906 L 0.386719 250.503906 Z M 0.386719 0 " fill-opacity="1" fill-rule="nonzero"/></g><g clip-path="url(#0666b695f1)"><path fill="#ce4545" d="M 278.460938 80.742188 C 278.460938 82.679688 278.386719 84.585938 278.242188 86.488281 C 278.167969 87.695312 278.058594 88.867188 277.914062 90.078125 C 277.402344 94.542969 276.527344 98.902344 275.324219 103.109375 C 275.140625 103.695312 274.957031 104.28125 274.773438 104.90625 C 274.335938 106.296875 273.898438 107.652344 273.390625 108.96875 C 269.996094 118.121094 264.960938 126.507812 258.683594 133.71875 C 243.945312 150.707031 222.234375 161.433594 198.046875 161.433594 C 178.234375 161.433594 160.0625 154.222656 146.054688 142.285156 C 146.671875 142.359375 147.292969 142.398438 147.914062 142.46875 C 160.171875 151 175.097656 156.015625 191.1875 156.015625 C 217.417969 156.015625 240.515625 142.726562 254.015625 122.550781 C 256.789062 118.414062 259.195312 113.984375 261.09375 109.296875 C 261.605469 108.054688 262.078125 106.808594 262.515625 105.527344 C 262.84375 104.613281 263.136719 103.660156 263.429688 102.746094 C 264.632812 98.753906 265.542969 94.617188 266.054688 90.332031 C 266.238281 88.796875 266.382812 87.257812 266.492188 85.683594 C 266.601562 84.144531 266.640625 82.570312 266.640625 80.996094 C 266.640625 79.933594 266.601562 78.875 266.566406 77.8125 C 266.492188 76.199219 266.382812 74.625 266.199219 73.050781 C 265.945312 70.597656 265.542969 68.183594 265.070312 65.800781 C 264.707031 64.117188 264.304688 62.433594 263.867188 60.824219 C 262.296875 55.222656 260.109375 49.914062 257.335938 44.933594 C 255.730469 42.003906 253.90625 39.222656 251.933594 36.550781 C 238.179688 18.023438 216.105469 6.015625 191.148438 6.015625 C 168.164062 6.015625 147.585938 16.230469 133.757812 32.300781 C 148.425781 12.75 171.777344 0.0820312 198.046875 0.0820312 C 229.3125 0.0820312 256.386719 17.984375 269.703125 44.128906 C 270.507812 45.664062 271.234375 47.238281 271.929688 48.851562 C 273.828125 53.28125 275.359375 57.929688 276.453125 62.726562 C 276.746094 64.007812 277 65.253906 277.21875 66.570312 C 277.65625 69.097656 277.984375 71.660156 278.203125 74.261719 C 278.3125 75.46875 278.386719 76.714844 278.421875 77.957031 C 278.460938 78.875 278.460938 79.789062 278.460938 80.742188 Z M 278.460938 80.742188 " fill-opacity="1" fill-rule="nonzero"/></g><g clip-path="url(#ac602c49dc)"><path fill="#26499e" d="M 241.464844 32.007812 C 244.785156 35.378906 247.738281 39.039062 250.328125 42.992188 L 224.898438 36.144531 L 224.425781 24.722656 Z M 276.636719 47.058594 C 276.671875 47.167969 276.707031 47.277344 276.78125 47.351562 C 277.21875 48.375 277.621094 49.398438 278.023438 50.425781 L 295.679688 55.183594 Z M 225.375 101.425781 C 225.375 101.425781 232.488281 37.574219 194.03125 49.035156 C 194.03125 49.035156 207.421875 50.386719 210.160156 55.222656 C 224.863281 80.960938 215.851562 107.613281 215.851562 107.613281 L 228.65625 107.136719 L 257.042969 105.746094 C 257.445312 104.683594 257.847656 103.625 258.175781 102.523438 Z M 280.503906 103.257812 C 280.394531 103.695312 280.246094 104.171875 280.136719 104.613281 L 296.59375 103.808594 Z M 164.113281 30.433594 C 176.445312 29.007812 204.46875 28.054688 204.46875 28.054688 C 204.46875 28.054688 196.402344 33.765625 191.660156 44.238281 C 202.570312 34.71875 218.257812 22.78125 218.257812 22.78125 C 218.257812 22.78125 173.164062 25.164062 160.792969 27.542969 C 148.460938 29.921875 136.09375 48.046875 136.09375 48.046875 C 143.207031 38.964844 150.101562 32.046875 164.113281 30.433594 Z M 119.964844 90.480469 L 172.6875 88.101562 L 174.585938 81.914062 L 180.277344 80.960938 C 180.277344 80.960938 184.070312 78.105469 185.496094 74.296875 C 186.917969 70.488281 184.070312 51.414062 184.070312 51.414062 C 184.070312 51.414062 135.179688 54.269531 129.925781 56.171875 C 124.710938 58.078125 115.695312 81.4375 115.695312 81.4375 C 120.441406 81.875 119.964844 90.480469 119.964844 90.480469 Z M 168.894531 105.234375 L 167.945312 113.324219 L 185.019531 113.324219 L 185.019531 100.949219 C 185.019531 100.949219 204.503906 98.570312 205.925781 98.570312 C 204.648438 98.570312 185.019531 98.570312 185.019531 98.570312 Z M 121.863281 104.757812 L 113.800781 100.476562 L 114.75 112.851562 L 124.234375 111.421875 Z M 205.925781 54.746094 C 200.234375 54.269531 191.222656 53.792969 191.222656 53.792969 C 191.222656 53.792969 187.902344 82.386719 188.375 90.003906 C 188.484375 91.503906 195.015625 91.90625 196.914062 89.050781 C 198.8125 86.195312 199.761719 77.628906 201.183594 77.152344 C 202.605469 76.675781 209.722656 78.582031 209.722656 78.582031 C 209.722656 78.582031 211.617188 55.222656 205.925781 54.746094 Z M 106.210938 69.023438 C 104.789062 74.734375 108.582031 83.304688 108.582031 83.304688 L 111.902344 82.351562 L 110.953125 69.976562 Z M 239.164062 57.234375 L 239.929688 64.265625 L 259.925781 65.472656 C 259.488281 63.605469 258.976562 61.773438 258.429688 59.980469 C 247.847656 58.371094 239.894531 57.234375 239.164062 57.234375 Z M 281.78125 63.53125 C 282 64.632812 282.21875 65.730469 282.402344 66.863281 L 317.0625 68.988281 C 317.0625 68.953125 299.949219 66.277344 281.78125 63.53125 Z M 239.164062 70.527344 L 239.929688 77.554688 L 261.605469 77.773438 C 261.53125 76.015625 261.386719 74.296875 261.164062 72.574219 C 249.199219 71.40625 239.929688 70.527344 239.164062 70.527344 Z M 283.277344 74.734375 C 283.347656 75.796875 283.386719 76.894531 283.421875 77.996094 L 319.359375 78.359375 C 319.398438 78.324219 301.921875 76.566406 283.277344 74.734375 Z M 239.164062 83.816406 L 239.929688 90.847656 L 261.019531 90.40625 C 261.238281 88.722656 261.421875 87.039062 261.53125 85.28125 C 249.453125 84.4375 239.96875 83.816406 239.164062 83.816406 Z M 283.277344 86.855469 C 283.203125 87.878906 283.128906 88.941406 282.984375 89.96875 L 317.027344 89.269531 C 317.0625 89.269531 300.898438 88.101562 283.277344 86.855469 Z M 235.335938 120.503906 L 232.960938 125.042969 L 228.4375 124.566406 L 225.8125 128.628906 C 225.8125 128.628906 217.273438 113.875 215.851562 111.238281 C 215.449219 110.46875 218.953125 131.265625 218.953125 131.265625 L 228.21875 132 L 231.066406 127.457031 L 235.335938 126.984375 C 235.335938 126.984375 234.859375 124.125 235.589844 124.125 C 236.320312 124.125 239.382812 126.285156 240.808594 126.03125 C 241.464844 125.921875 243.507812 125.703125 245.550781 125.519531 C 246.207031 124.710938 246.863281 123.90625 247.519531 123.066406 C 243.761719 123.429688 235.335938 120.503906 235.335938 120.503906 Z M 160.792969 123.359375 L 163.640625 116.695312 L 128.03125 115.484375 L 128.25 120.976562 Z M 279.261719 121.5625 C 279.261719 128.59375 275.796875 134.304688 271.527344 134.304688 L 264.851562 134.195312 C 267.296875 131.121094 269.519531 127.933594 271.492188 124.566406 C 271.894531 125.8125 272.441406 126.578125 273.058594 126.578125 C 274.226562 126.578125 275.214844 123.871094 275.214844 120.503906 C 275.214844 119.585938 275.140625 118.746094 275.03125 117.976562 C 275.652344 116.695312 276.234375 115.414062 276.78125 114.132812 C 276.929688 113.765625 277.109375 113.363281 277.257812 112.996094 C 278.496094 115.230469 279.261719 118.230469 279.261719 121.5625 Z M 209.210938 138.515625 C 209.246094 138.550781 209.246094 138.589844 209.246094 138.589844 C 209.246094 138.589844 202.351562 141.226562 193.59375 140.015625 C 188.523438 139.320312 187.429688 133.976562 187.355469 129.582031 L 186.441406 131.925781 L 152.511719 129.800781 C 151.308594 131.816406 148.9375 135.148438 145.507812 137.125 C 143.683594 138.1875 141.566406 138.882812 139.195312 138.808594 C 136.128906 138.734375 134.050781 137.492188 132.664062 135.84375 C 130.511719 133.316406 129.925781 129.875 129.78125 128.375 L 125.21875 128.082031 L 115.734375 121.894531 C 115.734375 121.894531 182.210938 128.558594 182.683594 127.128906 C 183.160156 125.703125 186.953125 120.464844 186.953125 120.464844 L 194.542969 120.941406 C 194.542969 120.941406 195.964844 107.613281 200.234375 105.234375 C 204.503906 102.855469 213.988281 101.902344 213.988281 101.902344 C 213.988281 101.902344 206.328125 105.453125 203.082031 110.46875 L 205.5625 110.066406 C 206.144531 109.882812 206.730469 109.773438 207.347656 109.773438 C 212.347656 109.773438 216.363281 116.292969 216.363281 124.308594 C 216.363281 131.304688 213.296875 137.125 209.210938 138.515625 Z M 211.144531 124.785156 C 211.144531 121.417969 210.195312 118.707031 209.027344 118.707031 C 207.859375 118.707031 206.875 121.417969 206.875 124.785156 C 206.875 128.15625 207.824219 130.863281 209.027344 130.863281 C 210.195312 130.863281 211.144531 128.117188 211.144531 124.785156 Z M 211.144531 124.785156 " fill-opacity="1" fill-rule="nonzero"/></g><g fill="#003082" fill-opacity="0.4196"><g transform="translate(146.179549, 199.891014)"><g><path d="M 18.28125 -17.015625 C 19.15625 -16.921875 20.03125 -16.921875 20.90625 -17.015625 C 19.4375 -14.109375 18.035156 -11.273438 16.703125 -8.515625 C 15.378906 -5.753906 14.039062 -2.914062 12.6875 0 L 8.890625 0 C 7.585938 -2.914062 6.265625 -5.753906 4.921875 -8.515625 C 3.578125 -11.273438 2.175781 -14.109375 0.71875 -17.015625 C 1.644531 -16.921875 2.5625 -16.921875 3.46875 -17.015625 C 4.050781 -15.734375 4.660156 -14.390625 5.296875 -12.984375 C 5.941406 -11.585938 6.585938 -10.191406 7.234375 -8.796875 C 7.878906 -7.410156 8.503906 -6.085938 9.109375 -4.828125 C 9.722656 -3.578125 10.289062 -2.453125 10.8125 -1.453125 C 11.332031 -2.453125 11.898438 -3.578125 12.515625 -4.828125 C 13.140625 -6.085938 13.773438 -7.410156 14.421875 -8.796875 C 15.078125 -10.191406 15.734375 -11.585938 16.390625 -12.984375 C 17.046875 -14.390625 17.675781 -15.734375 18.28125 -17.015625 Z M 18.28125 -17.015625 "/></g></g></g><g fill="#003082" fill-opacity="0.4196"><g transform="translate(169.475639, 199.891014)"><g><path d="M 2.515625 0 C 2.546875 -1.226562 2.570312 -2.570312 2.59375 -4.03125 C 2.625 -5.488281 2.640625 -6.976562 2.640625 -8.5 C 2.640625 -10.03125 2.625 -11.519531 2.59375 -12.96875 C 2.570312 -14.425781 2.546875 -15.773438 2.515625 -17.015625 C 3.441406 -16.890625 4.304688 -16.890625 5.109375 -17.015625 C 5.078125 -15.773438 5.050781 -14.425781 5.03125 -12.96875 C 5.019531 -11.519531 5.015625 -10.023438 5.015625 -8.484375 C 5.015625 -6.953125 5.023438 -5.460938 5.046875 -4.015625 C 5.066406 -2.566406 5.101562 -1.226562 5.15625 0 Z M 2.515625 0 "/></g></g></g><g fill="#003082" fill-opacity="0.4196"><g transform="translate(178.81289, 199.891014)"><g><path d="M 12.65625 0.234375 C 10.519531 0.234375 8.554688 0.0507812 6.765625 -0.3125 C 4.984375 -0.6875 3.359375 -1.148438 1.890625 -1.703125 C 1.984375 -2.535156 1.984375 -3.363281 1.890625 -4.1875 C 2.429688 -3.769531 3.101562 -3.394531 3.90625 -3.0625 C 4.71875 -2.726562 5.617188 -2.445312 6.609375 -2.21875 C 7.609375 -2 8.644531 -1.828125 9.71875 -1.703125 C 10.789062 -1.585938 11.84375 -1.53125 12.875 -1.53125 C 15.03125 -1.53125 16.59375 -1.769531 17.5625 -2.25 C 18.53125 -2.738281 19.015625 -3.472656 19.015625 -4.453125 C 19.015625 -5.347656 18.6875 -6.003906 18.03125 -6.421875 C 17.382812 -6.835938 16.453125 -7.132812 15.234375 -7.3125 C 14.023438 -7.488281 12.582031 -7.640625 10.90625 -7.765625 C 9.507812 -7.890625 8.242188 -8.035156 7.109375 -8.203125 C 5.972656 -8.367188 5.003906 -8.613281 4.203125 -8.9375 C 3.398438 -9.257812 2.785156 -9.703125 2.359375 -10.265625 C 1.941406 -10.828125 1.734375 -11.554688 1.734375 -12.453125 C 1.734375 -15.660156 4.710938 -17.265625 10.671875 -17.265625 C 12.117188 -17.265625 13.394531 -17.191406 14.5 -17.046875 C 15.601562 -16.910156 16.644531 -16.738281 17.625 -16.53125 C 18.601562 -16.320312 19.613281 -16.097656 20.65625 -15.859375 C 20.59375 -15.421875 20.566406 -15.023438 20.578125 -14.671875 C 20.585938 -14.316406 20.613281 -13.960938 20.65625 -13.609375 C 19.351562 -14.054688 17.859375 -14.488281 16.171875 -14.90625 C 14.484375 -15.320312 12.628906 -15.53125 10.609375 -15.53125 C 8.421875 -15.53125 6.8125 -15.28125 5.78125 -14.78125 C 4.757812 -14.289062 4.25 -13.539062 4.25 -12.53125 C 4.25 -11.769531 4.507812 -11.175781 5.03125 -10.75 C 5.5625 -10.332031 6.378906 -10.019531 7.484375 -9.8125 C 8.597656 -9.601562 10.03125 -9.429688 11.78125 -9.296875 C 13.082031 -9.179688 14.316406 -9.046875 15.484375 -8.890625 C 16.648438 -8.742188 17.679688 -8.507812 18.578125 -8.1875 C 19.484375 -7.875 20.195312 -7.425781 20.71875 -6.84375 C 21.25 -6.257812 21.515625 -5.476562 21.515625 -4.5 C 21.515625 -2.90625 20.765625 -1.71875 19.265625 -0.9375 C 17.773438 -0.15625 15.570312 0.234375 12.65625 0.234375 Z M 12.65625 0.234375 "/></g></g></g><g fill="#003082" fill-opacity="0.4196"><g transform="translate(203.726728, 199.891014)"><g><path d="M 20.640625 0 L 18.09375 0 C 18.125 -1.0625 18.148438 -2.207031 18.171875 -3.4375 C 18.191406 -4.675781 18.203125 -5.941406 18.203125 -7.234375 C 15.984375 -7.304688 13.726562 -7.34375 11.4375 -7.34375 C 9.144531 -7.34375 6.890625 -7.296875 4.671875 -7.203125 C 4.671875 -5.910156 4.679688 -4.648438 4.703125 -3.421875 C 4.722656 -2.191406 4.75 -1.050781 4.78125 0 L 2.265625 0 C 2.296875 -1.226562 2.320312 -2.570312 2.34375 -4.03125 C 2.363281 -5.488281 2.375 -6.976562 2.375 -8.5 C 2.375 -10.03125 2.363281 -11.519531 2.34375 -12.96875 C 2.320312 -14.425781 2.296875 -15.773438 2.265625 -17.015625 C 3.140625 -16.890625 3.960938 -16.890625 4.734375 -17.015625 C 4.722656 -15.859375 4.703125 -14.585938 4.671875 -13.203125 C 4.648438 -11.828125 4.640625 -10.429688 4.640625 -9.015625 C 6.847656 -8.929688 9.101562 -8.890625 11.40625 -8.890625 C 13.707031 -8.890625 15.972656 -8.921875 18.203125 -8.984375 C 18.203125 -10.421875 18.191406 -11.820312 18.171875 -13.1875 C 18.148438 -14.5625 18.125 -15.835938 18.09375 -17.015625 C 18.96875 -16.890625 19.800781 -16.890625 20.59375 -17.015625 C 20.5625 -15.773438 20.535156 -14.425781 20.515625 -12.96875 C 20.503906 -11.519531 20.5 -10.023438 20.5 -8.484375 C 20.5 -6.953125 20.507812 -5.460938 20.53125 -4.015625 C 20.550781 -2.566406 20.585938 -1.226562 20.640625 0 Z M 20.640625 0 "/></g></g></g><g fill="#003082" fill-opacity="0.4196"><g transform="translate(228.27079, 199.891014)"><g><path d="M 21.484375 0 L 18.671875 0 C 18.304688 -0.8125 17.976562 -1.539062 17.6875 -2.1875 C 17.40625 -2.84375 17.125 -3.484375 16.84375 -4.109375 C 15.738281 -4.128906 14.503906 -4.140625 13.140625 -4.140625 C 11.785156 -4.148438 10.4375 -4.148438 9.09375 -4.140625 C 7.75 -4.140625 6.503906 -4.128906 5.359375 -4.109375 L 3.4375 0 L 0.71875 0 C 2.164062 -2.820312 3.582031 -5.65625 4.96875 -8.5 C 6.351562 -11.351562 7.71875 -14.191406 9.0625 -17.015625 C 9.425781 -16.984375 9.847656 -16.953125 10.328125 -16.921875 C 10.816406 -16.898438 11.304688 -16.894531 11.796875 -16.90625 C 12.285156 -16.925781 12.710938 -16.960938 13.078125 -17.015625 C 14.429688 -14.191406 15.804688 -11.351562 17.203125 -8.5 C 18.609375 -5.65625 20.035156 -2.820312 21.484375 0 Z M 6.078125 -5.65625 C 7.097656 -5.644531 8.195312 -5.632812 9.375 -5.625 C 10.550781 -5.613281 11.722656 -5.613281 12.890625 -5.625 C 14.066406 -5.632812 15.15625 -5.644531 16.15625 -5.65625 C 15.832031 -6.394531 15.445312 -7.21875 15 -8.125 C 14.550781 -9.039062 14.003906 -10.117188 13.359375 -11.359375 C 12.722656 -12.597656 11.9375 -14.082031 11 -15.8125 C 10.25 -14.40625 9.457031 -12.816406 8.625 -11.046875 C 7.789062 -9.285156 6.941406 -7.488281 6.078125 -5.65625 Z M 6.078125 -5.65625 "/></g></g></g><g fill="#003082" fill-opacity="0.4196"><g transform="translate(252.144638, 199.891014)"><g><path d="M 2.265625 0 C 2.359375 -5.65625 2.359375 -11.328125 2.265625 -17.015625 C 2.710938 -16.953125 3.15625 -16.921875 3.59375 -16.921875 C 4.03125 -16.921875 4.453125 -16.953125 4.859375 -17.015625 C 4.828125 -15.929688 4.796875 -14.75 4.765625 -13.46875 C 4.742188 -12.195312 4.722656 -10.878906 4.703125 -9.515625 C 4.691406 -8.160156 4.6875 -6.8125 4.6875 -5.46875 C 4.6875 -4.132812 4.695312 -2.875 4.71875 -1.6875 C 5.757812 -1.6875 6.910156 -1.695312 8.171875 -1.71875 C 9.441406 -1.738281 10.738281 -1.769531 12.0625 -1.8125 C 13.382812 -1.851562 14.664062 -1.898438 15.90625 -1.953125 C 17.144531 -2.003906 18.273438 -2.070312 19.296875 -2.15625 C 19.253906 -1.363281 19.253906 -0.644531 19.296875 0 Z M 2.265625 0 "/></g></g></g><g fill="#002d5e" fill-opacity="1"><g transform="translate(143.786885, 199.7237)"><g><path d="M 18.28125 -17.015625 C 19.15625 -16.921875 20.03125 -16.921875 20.90625 -17.015625 C 19.4375 -14.109375 18.035156 -11.273438 16.703125 -8.515625 C 15.378906 -5.753906 14.039062 -2.914062 12.6875 0 L 8.890625 0 C 7.585938 -2.914062 6.265625 -5.753906 4.921875 -8.515625 C 3.578125 -11.273438 2.175781 -14.109375 0.71875 -17.015625 C 1.644531 -16.921875 2.5625 -16.921875 3.46875 -17.015625 C 4.050781 -15.734375 4.660156 -14.390625 5.296875 -12.984375 C 5.941406 -11.585938 6.585938 -10.191406 7.234375 -8.796875 C 7.878906 -7.410156 8.503906 -6.085938 9.109375 -4.828125 C 9.722656 -3.578125 10.289062 -2.453125 10.8125 -1.453125 C 11.332031 -2.453125 11.898438 -3.578125 12.515625 -4.828125 C 13.140625 -6.085938 13.773438 -7.410156 14.421875 -8.796875 C 15.078125 -10.191406 15.734375 -11.585938 16.390625 -12.984375 C 17.046875 -14.390625 17.675781 -15.734375 18.28125 -17.015625 Z M 18.28125 -17.015625 "/></g></g></g><g fill="#002d5e" fill-opacity="1"><g transform="translate(167.082974, 199.7237)"><g><path d="M 2.515625 0 C 2.546875 -1.226562 2.570312 -2.570312 2.59375 -4.03125 C 2.625 -5.488281 2.640625 -6.976562 2.640625 -8.5 C 2.640625 -10.03125 2.625 -11.519531 2.59375 -12.96875 C 2.570312 -14.425781 2.546875 -15.773438 2.515625 -17.015625 C 3.441406 -16.890625 4.304688 -16.890625 5.109375 -17.015625 C 5.078125 -15.773438 5.050781 -14.425781 5.03125 -12.96875 C 5.019531 -11.519531 5.015625 -10.023438 5.015625 -8.484375 C 5.015625 -6.953125 5.023438 -5.460938 5.046875 -4.015625 C 5.066406 -2.566406 5.101562 -1.226562 5.15625 0 Z M 2.515625 0 "/></g></g></g><g fill="#002d5e" fill-opacity="1"><g transform="translate(176.420225, 199.7237)"><g><path d="M 12.65625 0.234375 C 10.519531 0.234375 8.554688 0.0507812 6.765625 -0.3125 C 4.984375 -0.6875 3.359375 -1.148438 1.890625 -1.703125 C 1.984375 -2.535156 1.984375 -3.363281 1.890625 -4.1875 C 2.429688 -3.769531 3.101562 -3.394531 3.90625 -3.0625 C 4.71875 -2.726562 5.617188 -2.445312 6.609375 -2.21875 C 7.609375 -2 8.644531 -1.828125 9.71875 -1.703125 C 10.789062 -1.585938 11.84375 -1.53125 12.875 -1.53125 C 15.03125 -1.53125 16.59375 -1.769531 17.5625 -2.25 C 18.53125 -2.738281 19.015625 -3.472656 19.015625 -4.453125 C 19.015625 -5.347656 18.6875 -6.003906 18.03125 -6.421875 C 17.382812 -6.835938 16.453125 -7.132812 15.234375 -7.3125 C 14.023438 -7.488281 12.582031 -7.640625 10.90625 -7.765625 C 9.507812 -7.890625 8.242188 -8.035156 7.109375 -8.203125 C 5.972656 -8.367188 5.003906 -8.613281 4.203125 -8.9375 C 3.398438 -9.257812 2.785156 -9.703125 2.359375 -10.265625 C 1.941406 -10.828125 1.734375 -11.554688 1.734375 -12.453125 C 1.734375 -15.660156 4.710938 -17.265625 10.671875 -17.265625 C 12.117188 -17.265625 13.394531 -17.191406 14.5 -17.046875 C 15.601562 -16.910156 16.644531 -16.738281 17.625 -16.53125 C 18.601562 -16.320312 19.613281 -16.097656 20.65625 -15.859375 C 20.59375 -15.421875 20.566406 -15.023438 20.578125 -14.671875 C 20.585938 -14.316406 20.613281 -13.960938 20.65625 -13.609375 C 19.351562 -14.054688 17.859375 -14.488281 16.171875 -14.90625 C 14.484375 -15.320312 12.628906 -15.53125 10.609375 -15.53125 C 8.421875 -15.53125 6.8125 -15.28125 5.78125 -14.78125 C 4.757812 -14.289062 4.25 -13.539062 4.25 -12.53125 C 4.25 -11.769531 4.507812 -11.175781 5.03125 -10.75 C 5.5625 -10.332031 6.378906 -10.019531 7.484375 -9.8125 C 8.597656 -9.601562 10.03125 -9.429688 11.78125 -9.296875 C 13.082031 -9.179688 14.316406 -9.046875 15.484375 -8.890625 C 16.648438 -8.742188 17.679688 -8.507812 18.578125 -8.1875 C 19.484375 -7.875 20.195312 -7.425781 20.71875 -6.84375 C 21.25 -6.257812 21.515625 -5.476562 21.515625 -4.5 C 21.515625 -2.90625 20.765625 -1.71875 19.265625 -0.9375 C 17.773438 -0.15625 15.570312 0.234375 12.65625 0.234375 Z M 12.65625 0.234375 "/></g></g></g><g fill="#002d5e" fill-opacity="1"><g transform="translate(201.334064, 199.7237)"><g><path d="M 20.640625 0 L 18.09375 0 C 18.125 -1.0625 18.148438 -2.207031 18.171875 -3.4375 C 18.191406 -4.675781 18.203125 -5.941406 18.203125 -7.234375 C 15.984375 -7.304688 13.726562 -7.34375 11.4375 -7.34375 C 9.144531 -7.34375 6.890625 -7.296875 4.671875 -7.203125 C 4.671875 -5.910156 4.679688 -4.648438 4.703125 -3.421875 C 4.722656 -2.191406 4.75 -1.050781 4.78125 0 L 2.265625 0 C 2.296875 -1.226562 2.320312 -2.570312 2.34375 -4.03125 C 2.363281 -5.488281 2.375 -6.976562 2.375 -8.5 C 2.375 -10.03125 2.363281 -11.519531 2.34375 -12.96875 C 2.320312 -14.425781 2.296875 -15.773438 2.265625 -17.015625 C 3.140625 -16.890625 3.960938 -16.890625 4.734375 -17.015625 C 4.722656 -15.859375 4.703125 -14.585938 4.671875 -13.203125 C 4.648438 -11.828125 4.640625 -10.429688 4.640625 -9.015625 C 6.847656 -8.929688 9.101562 -8.890625 11.40625 -8.890625 C 13.707031 -8.890625 15.972656 -8.921875 18.203125 -8.984375 C 18.203125 -10.421875 18.191406 -11.820312 18.171875 -13.1875 C 18.148438 -14.5625 18.125 -15.835938 18.09375 -17.015625 C 18.96875 -16.890625 19.800781 -16.890625 20.59375 -17.015625 C 20.5625 -15.773438 20.535156 -14.425781 20.515625 -12.96875 C 20.503906 -11.519531 20.5 -10.023438 20.5 -8.484375 C 20.5 -6.953125 20.507812 -5.460938 20.53125 -4.015625 C 20.550781 -2.566406 20.585938 -1.226562 20.640625 0 Z M 20.640625 0 "/></g></g></g><g fill="#002d5e" fill-opacity="1"><g transform="translate(225.878126, 199.7237)"><g><path d="M 21.484375 0 L 18.671875 0 C 18.304688 -0.8125 17.976562 -1.539062 17.6875 -2.1875 C 17.40625 -2.84375 17.125 -3.484375 16.84375 -4.109375 C 15.738281 -4.128906 14.503906 -4.140625 13.140625 -4.140625 C 11.785156 -4.148438 10.4375 -4.148438 9.09375 -4.140625 C 7.75 -4.140625 6.503906 -4.128906 5.359375 -4.109375 L 3.4375 0 L 0.71875 0 C 2.164062 -2.820312 3.582031 -5.65625 4.96875 -8.5 C 6.351562 -11.351562 7.71875 -14.191406 9.0625 -17.015625 C 9.425781 -16.984375 9.847656 -16.953125 10.328125 -16.921875 C 10.816406 -16.898438 11.304688 -16.894531 11.796875 -16.90625 C 12.285156 -16.925781 12.710938 -16.960938 13.078125 -17.015625 C 14.429688 -14.191406 15.804688 -11.351562 17.203125 -8.5 C 18.609375 -5.65625 20.035156 -2.820312 21.484375 0 Z M 6.078125 -5.65625 C 7.097656 -5.644531 8.195312 -5.632812 9.375 -5.625 C 10.550781 -5.613281 11.722656 -5.613281 12.890625 -5.625 C 14.066406 -5.632812 15.15625 -5.644531 16.15625 -5.65625 C 15.832031 -6.394531 15.445312 -7.21875 15 -8.125 C 14.550781 -9.039062 14.003906 -10.117188 13.359375 -11.359375 C 12.722656 -12.597656 11.9375 -14.082031 11 -15.8125 C 10.25 -14.40625 9.457031 -12.816406 8.625 -11.046875 C 7.789062 -9.285156 6.941406 -7.488281 6.078125 -5.65625 Z M 6.078125 -5.65625 "/></g></g></g><g fill="#002d5e" fill-opacity="1"><g transform="translate(249.751974, 199.7237)"><g><path d="M 2.265625 0 C 2.359375 -5.65625 2.359375 -11.328125 2.265625 -17.015625 C 2.710938 -16.953125 3.15625 -16.921875 3.59375 -16.921875 C 4.03125 -16.921875 4.453125 -16.953125 4.859375 -17.015625 C 4.828125 -15.929688 4.796875 -14.75 4.765625 -13.46875 C 4.742188 -12.195312 4.722656 -10.878906 4.703125 -9.515625 C 4.691406 -8.160156 4.6875 -6.8125 4.6875 -5.46875 C 4.6875 -4.132812 4.695312 -2.875 4.71875 -1.6875 C 5.757812 -1.6875 6.910156 -1.695312 8.171875 -1.71875 C 9.441406 -1.738281 10.738281 -1.769531 12.0625 -1.8125 C 13.382812 -1.851562 14.664062 -1.898438 15.90625 -1.953125 C 17.144531 -2.003906 18.273438 -2.070312 19.296875 -2.15625 C 19.253906 -1.363281 19.253906 -0.644531 19.296875 0 Z M 2.265625 0 "/></g></g></g><g fill="#003082" fill-opacity="0.4196"><g transform="translate(67.61856, 235.679314)"><g><path d="M 8.921875 0 C 8.960938 -1.425781 8.988281 -2.96875 9 -4.625 C 9.019531 -6.28125 9.03125 -7.960938 9.03125 -9.671875 C 9.03125 -11.390625 9.015625 -13.054688 8.984375 -14.671875 C 7.398438 -14.648438 5.910156 -14.613281 4.515625 -14.5625 C 3.128906 -14.507812 1.769531 -14.441406 0.4375 -14.359375 C 0.53125 -15.003906 0.53125 -15.644531 0.4375 -16.28125 C 2.726562 -16.25 4.925781 -16.226562 7.03125 -16.21875 C 9.144531 -16.21875 11.25 -16.21875 13.34375 -16.21875 C 15.445312 -16.226562 17.644531 -16.25 19.9375 -16.28125 C 19.84375 -15.644531 19.84375 -15.003906 19.9375 -14.359375 C 18.59375 -14.441406 17.222656 -14.507812 15.828125 -14.5625 C 14.429688 -14.613281 12.929688 -14.648438 11.328125 -14.671875 C 11.316406 -13.046875 11.3125 -11.375 11.3125 -9.65625 C 11.3125 -7.9375 11.320312 -6.253906 11.34375 -4.609375 C 11.363281 -2.960938 11.394531 -1.425781 11.4375 0 Z M 8.921875 0 "/></g></g></g><g fill="#003082" fill-opacity="0.4196"><g transform="translate(88.94011, 235.679314)"><g><path d="M 2.171875 0 C 2.203125 -1.175781 2.226562 -2.460938 2.25 -3.859375 C 2.269531 -5.253906 2.28125 -6.679688 2.28125 -8.140625 C 2.28125 -9.597656 2.269531 -11.023438 2.25 -12.421875 C 2.226562 -13.816406 2.203125 -15.101562 2.171875 -16.28125 C 3.316406 -16.269531 4.398438 -16.265625 5.421875 -16.265625 C 6.441406 -16.273438 7.453125 -16.285156 8.453125 -16.296875 C 9.453125 -16.316406 10.5 -16.328125 11.59375 -16.328125 C 14.351562 -16.328125 16.414062 -15.953125 17.78125 -15.203125 C 19.144531 -14.453125 19.828125 -13.242188 19.828125 -11.578125 C 19.828125 -10.691406 19.640625 -9.957031 19.265625 -9.375 C 18.898438 -8.789062 18.414062 -8.320312 17.8125 -7.96875 C 17.21875 -7.625 16.566406 -7.367188 15.859375 -7.203125 C 15.148438 -7.035156 14.445312 -6.925781 13.75 -6.875 C 13.050781 -6.820312 12.421875 -6.796875 11.859375 -6.796875 L 11.859375 -6.609375 C 13.847656 -6.347656 15.570312 -5.644531 17.03125 -4.5 C 18.5 -3.351562 19.660156 -1.851562 20.515625 0 L 17.375 0 C 16.894531 -1.488281 16.257812 -2.6875 15.46875 -3.59375 C 14.6875 -4.5 13.695312 -5.164062 12.5 -5.59375 C 11.300781 -6.019531 9.84375 -6.257812 8.125 -6.3125 C 7.28125 -6.332031 6.585938 -6.347656 6.046875 -6.359375 C 5.515625 -6.367188 5.003906 -6.375 4.515625 -6.375 C 4.523438 -5.0625 4.539062 -3.910156 4.5625 -2.921875 C 4.59375 -1.941406 4.617188 -0.96875 4.640625 0 Z M 4.484375 -7.875 C 5.460938 -7.863281 6.445312 -7.84375 7.4375 -7.8125 C 8.425781 -7.789062 9.28125 -7.78125 10 -7.78125 C 11.59375 -7.78125 12.9375 -7.875 14.03125 -8.0625 C 15.132812 -8.257812 15.96875 -8.617188 16.53125 -9.140625 C 17.101562 -9.671875 17.390625 -10.414062 17.390625 -11.375 C 17.390625 -12.59375 16.875 -13.445312 15.84375 -13.9375 C 14.8125 -14.4375 13.375 -14.6875 11.53125 -14.6875 C 10.300781 -14.6875 9.082031 -14.679688 7.875 -14.671875 C 6.675781 -14.671875 5.5625 -14.671875 4.53125 -14.671875 C 4.519531 -13.566406 4.507812 -12.453125 4.5 -11.328125 C 4.488281 -10.203125 4.484375 -9.050781 4.484375 -7.875 Z M 4.484375 -7.875 "/></g></g></g><g fill="#003082" fill-opacity="0.4196"><g transform="translate(111.566602, 235.679314)"><g><path d="M 20.578125 0 L 17.875 0 C 17.519531 -0.78125 17.207031 -1.476562 16.9375 -2.09375 C 16.664062 -2.71875 16.394531 -3.332031 16.125 -3.9375 C 15.0625 -3.945312 13.878906 -3.957031 12.578125 -3.96875 C 11.285156 -3.976562 9.992188 -3.976562 8.703125 -3.96875 C 7.410156 -3.957031 6.222656 -3.945312 5.140625 -3.9375 L 3.296875 0 L 0.6875 0 C 2.070312 -2.695312 3.425781 -5.410156 4.75 -8.140625 C 6.082031 -10.867188 7.390625 -13.582031 8.671875 -16.28125 C 9.023438 -16.25 9.429688 -16.222656 9.890625 -16.203125 C 10.359375 -16.179688 10.820312 -16.175781 11.28125 -16.1875 C 11.75 -16.207031 12.160156 -16.238281 12.515625 -16.28125 C 13.816406 -13.582031 15.140625 -10.867188 16.484375 -8.140625 C 17.828125 -5.410156 19.191406 -2.695312 20.578125 0 Z M 5.8125 -5.421875 C 6.789062 -5.410156 7.84375 -5.398438 8.96875 -5.390625 C 10.101562 -5.378906 11.226562 -5.378906 12.34375 -5.390625 C 13.46875 -5.398438 14.507812 -5.410156 15.46875 -5.421875 C 15.15625 -6.128906 14.785156 -6.914062 14.359375 -7.78125 C 13.929688 -8.65625 13.410156 -9.6875 12.796875 -10.875 C 12.179688 -12.0625 11.425781 -13.484375 10.53125 -15.140625 C 9.8125 -13.796875 9.050781 -12.273438 8.25 -10.578125 C 7.457031 -8.890625 6.644531 -7.171875 5.8125 -5.421875 Z M 5.8125 -5.421875 "/></g></g></g><g fill="#003082" fill-opacity="0.4196"><g transform="translate(133.772851, 235.679314)"><g><path d="M 18.03125 0 C 15.800781 -2.4375 13.5625 -4.859375 11.3125 -7.265625 C 9.0625 -9.679688 6.78125 -12.082031 4.46875 -14.46875 C 4.4375 -12.0625 4.425781 -9.648438 4.4375 -7.234375 C 4.457031 -4.828125 4.5 -2.414062 4.5625 0 L 2.171875 0 C 2.253906 -5.414062 2.253906 -10.84375 2.171875 -16.28125 C 2.628906 -16.238281 3.1875 -16.210938 3.84375 -16.203125 C 4.5 -16.203125 5.054688 -16.226562 5.515625 -16.28125 C 7.722656 -13.820312 9.953125 -11.378906 12.203125 -8.953125 C 14.460938 -6.523438 16.738281 -4.101562 19.03125 -1.6875 C 19.0625 -4.113281 19.066406 -6.539062 19.046875 -8.96875 C 19.035156 -11.394531 18.992188 -13.832031 18.921875 -16.28125 C 19.742188 -16.175781 20.53125 -16.175781 21.28125 -16.28125 C 21.226562 -10.84375 21.25 -5.414062 21.34375 0 Z M 18.03125 0 "/></g></g></g><g fill="#003082" fill-opacity="0.4196"><g transform="translate(158.21299, 235.679314)"><g><path d="M 12.125 0.21875 C 10.070312 0.21875 8.191406 0.0390625 6.484375 -0.3125 C 4.773438 -0.664062 3.21875 -1.109375 1.8125 -1.640625 C 1.90625 -2.429688 1.90625 -3.21875 1.8125 -4 C 2.332031 -3.601562 2.976562 -3.242188 3.75 -2.921875 C 4.519531 -2.609375 5.378906 -2.34375 6.328125 -2.125 C 7.285156 -1.914062 8.273438 -1.75 9.296875 -1.625 C 10.328125 -1.507812 11.335938 -1.453125 12.328125 -1.453125 C 14.390625 -1.453125 15.882812 -1.6875 16.8125 -2.15625 C 17.738281 -2.625 18.203125 -3.328125 18.203125 -4.265625 C 18.203125 -5.117188 17.890625 -5.742188 17.265625 -6.140625 C 16.640625 -6.546875 15.75 -6.832031 14.59375 -7 C 13.4375 -7.164062 12.050781 -7.3125 10.4375 -7.4375 C 9.09375 -7.550781 7.878906 -7.6875 6.796875 -7.84375 C 5.710938 -8.007812 4.785156 -8.25 4.015625 -8.5625 C 3.253906 -8.875 2.671875 -9.296875 2.265625 -9.828125 C 1.859375 -10.367188 1.65625 -11.066406 1.65625 -11.921875 C 1.65625 -14.992188 4.507812 -16.53125 10.21875 -16.53125 C 11.601562 -16.53125 12.820312 -16.460938 13.875 -16.328125 C 14.9375 -16.191406 15.9375 -16.023438 16.875 -15.828125 C 17.8125 -15.628906 18.78125 -15.410156 19.78125 -15.171875 C 19.71875 -14.765625 19.691406 -14.390625 19.703125 -14.046875 C 19.710938 -13.710938 19.738281 -13.375 19.78125 -13.03125 C 18.53125 -13.457031 17.09375 -13.867188 15.46875 -14.265625 C 13.851562 -14.671875 12.082031 -14.875 10.15625 -14.875 C 8.0625 -14.875 6.523438 -14.632812 5.546875 -14.15625 C 4.566406 -13.6875 4.078125 -12.960938 4.078125 -11.984375 C 4.078125 -11.265625 4.328125 -10.703125 4.828125 -10.296875 C 5.328125 -9.890625 6.109375 -9.585938 7.171875 -9.390625 C 8.234375 -9.191406 9.601562 -9.023438 11.28125 -8.890625 C 12.519531 -8.785156 13.695312 -8.660156 14.8125 -8.515625 C 15.9375 -8.367188 16.929688 -8.144531 17.796875 -7.84375 C 18.660156 -7.539062 19.34375 -7.109375 19.84375 -6.546875 C 20.34375 -5.984375 20.59375 -5.238281 20.59375 -4.3125 C 20.59375 -2.78125 19.878906 -1.640625 18.453125 -0.890625 C 17.023438 -0.148438 14.914062 0.21875 12.125 0.21875 Z M 12.125 0.21875 "/></g></g></g><g fill="#003082" fill-opacity="0.4196"><g transform="translate(181.414536, 235.679314)"><g><path d="M 11.65625 -16.328125 C 14.207031 -16.328125 16.125 -15.875 17.40625 -14.96875 C 18.695312 -14.070312 19.34375 -12.6875 19.34375 -10.8125 C 19.34375 -9.707031 19.082031 -8.742188 18.5625 -7.921875 C 18.039062 -7.097656 17.226562 -6.453125 16.125 -5.984375 C 15.03125 -5.515625 13.609375 -5.28125 11.859375 -5.28125 L 4.515625 -5.28125 C 4.523438 -4.375 4.546875 -3.472656 4.578125 -2.578125 C 4.609375 -1.679688 4.640625 -0.820312 4.671875 0 L 2.171875 0 C 2.203125 -1.070312 2.226562 -2.296875 2.25 -3.671875 C 2.269531 -5.054688 2.28125 -6.492188 2.28125 -7.984375 C 2.28125 -9.472656 2.269531 -10.929688 2.25 -12.359375 C 2.226562 -13.796875 2.203125 -15.101562 2.171875 -16.28125 C 3.347656 -16.269531 4.441406 -16.265625 5.453125 -16.265625 C 6.472656 -16.273438 7.484375 -16.285156 8.484375 -16.296875 C 9.492188 -16.316406 10.550781 -16.328125 11.65625 -16.328125 Z M 11.328125 -6.765625 C 15.097656 -6.765625 16.984375 -8.070312 16.984375 -10.6875 C 16.984375 -12.039062 16.5 -13.046875 15.53125 -13.703125 C 14.5625 -14.359375 13.140625 -14.6875 11.265625 -14.6875 C 10.179688 -14.6875 9.050781 -14.679688 7.875 -14.671875 C 6.707031 -14.671875 5.578125 -14.671875 4.484375 -14.671875 C 4.441406 -12.097656 4.441406 -9.476562 4.484375 -6.8125 C 5.640625 -6.800781 6.78125 -6.789062 7.90625 -6.78125 C 9.039062 -6.769531 10.179688 -6.765625 11.328125 -6.765625 Z M 11.328125 -6.765625 "/></g></g></g><g fill="#003082" fill-opacity="0.4196"><g transform="translate(202.669736, 235.679314)"><g><path d="M 12.03125 0.265625 C 9.789062 0.265625 7.863281 -0.0625 6.25 -0.71875 C 4.644531 -1.382812 3.414062 -2.34375 2.5625 -3.59375 C 1.707031 -4.851562 1.28125 -6.367188 1.28125 -8.140625 C 1.28125 -9.941406 1.707031 -11.46875 2.5625 -12.71875 C 3.414062 -13.976562 4.644531 -14.9375 6.25 -15.59375 C 7.851562 -16.25 9.78125 -16.578125 12.03125 -16.578125 C 14.289062 -16.578125 16.21875 -16.242188 17.8125 -15.578125 C 19.414062 -14.910156 20.640625 -13.945312 21.484375 -12.6875 C 22.335938 -11.4375 22.765625 -9.921875 22.765625 -8.140625 C 22.765625 -6.367188 22.335938 -4.851562 21.484375 -3.59375 C 20.640625 -2.34375 19.414062 -1.382812 17.8125 -0.71875 C 16.21875 -0.0625 14.289062 0.265625 12.03125 0.265625 Z M 12.03125 -1.328125 C 13.769531 -1.328125 15.265625 -1.585938 16.515625 -2.109375 C 17.773438 -2.628906 18.742188 -3.394531 19.421875 -4.40625 C 20.097656 -5.414062 20.4375 -6.644531 20.4375 -8.09375 C 20.4375 -9.539062 20.097656 -10.773438 19.421875 -11.796875 C 18.742188 -12.828125 17.773438 -13.617188 16.515625 -14.171875 C 15.265625 -14.722656 13.769531 -15 12.03125 -15 C 10.28125 -15 8.773438 -14.722656 7.515625 -14.171875 C 6.253906 -13.617188 5.289062 -12.828125 4.625 -11.796875 C 3.957031 -10.773438 3.625 -9.539062 3.625 -8.09375 C 3.625 -5.925781 4.363281 -4.253906 5.84375 -3.078125 C 7.332031 -1.910156 9.394531 -1.328125 12.03125 -1.328125 Z M 12.03125 -1.328125 "/></g></g></g><g fill="#003082" fill-opacity="0.4196"><g transform="translate(227.662817, 235.679314)"><g><path d="M 2.171875 0 C 2.203125 -1.175781 2.226562 -2.460938 2.25 -3.859375 C 2.269531 -5.253906 2.28125 -6.679688 2.28125 -8.140625 C 2.28125 -9.597656 2.269531 -11.023438 2.25 -12.421875 C 2.226562 -13.816406 2.203125 -15.101562 2.171875 -16.28125 C 3.316406 -16.269531 4.398438 -16.265625 5.421875 -16.265625 C 6.441406 -16.273438 7.453125 -16.285156 8.453125 -16.296875 C 9.453125 -16.316406 10.5 -16.328125 11.59375 -16.328125 C 14.351562 -16.328125 16.414062 -15.953125 17.78125 -15.203125 C 19.144531 -14.453125 19.828125 -13.242188 19.828125 -11.578125 C 19.828125 -10.691406 19.640625 -9.957031 19.265625 -9.375 C 18.898438 -8.789062 18.414062 -8.320312 17.8125 -7.96875 C 17.21875 -7.625 16.566406 -7.367188 15.859375 -7.203125 C 15.148438 -7.035156 14.445312 -6.925781 13.75 -6.875 C 13.050781 -6.820312 12.421875 -6.796875 11.859375 -6.796875 L 11.859375 -6.609375 C 13.847656 -6.347656 15.570312 -5.644531 17.03125 -4.5 C 18.5 -3.351562 19.660156 -1.851562 20.515625 0 L 17.375 0 C 16.894531 -1.488281 16.257812 -2.6875 15.46875 -3.59375 C 14.6875 -4.5 13.695312 -5.164062 12.5 -5.59375 C 11.300781 -6.019531 9.84375 -6.257812 8.125 -6.3125 C 7.28125 -6.332031 6.585938 -6.347656 6.046875 -6.359375 C 5.515625 -6.367188 5.003906 -6.375 4.515625 -6.375 C 4.523438 -5.0625 4.539062 -3.910156 4.5625 -2.921875 C 4.59375 -1.941406 4.617188 -0.96875 4.640625 0 Z M 4.484375 -7.875 C 5.460938 -7.863281 6.445312 -7.84375 7.4375 -7.8125 C 8.425781 -7.789062 9.28125 -7.78125 10 -7.78125 C 11.59375 -7.78125 12.9375 -7.875 14.03125 -8.0625 C 15.132812 -8.257812 15.96875 -8.617188 16.53125 -9.140625 C 17.101562 -9.671875 17.390625 -10.414062 17.390625 -11.375 C 17.390625 -12.59375 16.875 -13.445312 15.84375 -13.9375 C 14.8125 -14.4375 13.375 -14.6875 11.53125 -14.6875 C 10.300781 -14.6875 9.082031 -14.679688 7.875 -14.671875 C 6.675781 -14.671875 5.5625 -14.671875 4.53125 -14.671875 C 4.519531 -13.566406 4.507812 -12.453125 4.5 -11.328125 C 4.488281 -10.203125 4.484375 -9.050781 4.484375 -7.875 Z M 4.484375 -7.875 "/></g></g></g><g fill="#003082" fill-opacity="0.4196"><g transform="translate(250.289309, 235.679314)"><g><path d="M 8.921875 0 C 8.960938 -1.425781 8.988281 -2.96875 9 -4.625 C 9.019531 -6.28125 9.03125 -7.960938 9.03125 -9.671875 C 9.03125 -11.390625 9.015625 -13.054688 8.984375 -14.671875 C 7.398438 -14.648438 5.910156 -14.613281 4.515625 -14.5625 C 3.128906 -14.507812 1.769531 -14.441406 0.4375 -14.359375 C 0.53125 -15.003906 0.53125 -15.644531 0.4375 -16.28125 C 2.726562 -16.25 4.925781 -16.226562 7.03125 -16.21875 C 9.144531 -16.21875 11.25 -16.21875 13.34375 -16.21875 C 15.445312 -16.226562 17.644531 -16.25 19.9375 -16.28125 C 19.84375 -15.644531 19.84375 -15.003906 19.9375 -14.359375 C 18.59375 -14.441406 17.222656 -14.507812 15.828125 -14.5625 C 14.429688 -14.613281 12.929688 -14.648438 11.328125 -14.671875 C 11.316406 -13.046875 11.3125 -11.375 11.3125 -9.65625 C 11.3125 -7.9375 11.320312 -6.253906 11.34375 -4.609375 C 11.363281 -2.960938 11.394531 -1.425781 11.4375 0 Z M 8.921875 0 "/></g></g></g><g fill="#003082" fill-opacity="0.4196"><g transform="translate(271.610847, 235.679314)"><g><path d="M 20.578125 0 L 17.875 0 C 17.519531 -0.78125 17.207031 -1.476562 16.9375 -2.09375 C 16.664062 -2.71875 16.394531 -3.332031 16.125 -3.9375 C 15.0625 -3.945312 13.878906 -3.957031 12.578125 -3.96875 C 11.285156 -3.976562 9.992188 -3.976562 8.703125 -3.96875 C 7.410156 -3.957031 6.222656 -3.945312 5.140625 -3.9375 L 3.296875 0 L 0.6875 0 C 2.070312 -2.695312 3.425781 -5.410156 4.75 -8.140625 C 6.082031 -10.867188 7.390625 -13.582031 8.671875 -16.28125 C 9.023438 -16.25 9.429688 -16.222656 9.890625 -16.203125 C 10.359375 -16.179688 10.820312 -16.175781 11.28125 -16.1875 C 11.75 -16.207031 12.160156 -16.238281 12.515625 -16.28125 C 13.816406 -13.582031 15.140625 -10.867188 16.484375 -8.140625 C 17.828125 -5.410156 19.191406 -2.695312 20.578125 0 Z M 5.8125 -5.421875 C 6.789062 -5.410156 7.84375 -5.398438 8.96875 -5.390625 C 10.101562 -5.378906 11.226562 -5.378906 12.34375 -5.390625 C 13.46875 -5.398438 14.507812 -5.410156 15.46875 -5.421875 C 15.15625 -6.128906 14.785156 -6.914062 14.359375 -7.78125 C 13.929688 -8.65625 13.410156 -9.6875 12.796875 -10.875 C 12.179688 -12.0625 11.425781 -13.484375 10.53125 -15.140625 C 9.8125 -13.796875 9.050781 -12.273438 8.25 -10.578125 C 7.457031 -8.890625 6.644531 -7.171875 5.8125 -5.421875 Z M 5.8125 -5.421875 "/></g></g></g><g fill="#003082" fill-opacity="0.4196"><g transform="translate(293.817096, 235.679314)"><g><path d="M 8.921875 0 C 8.960938 -1.425781 8.988281 -2.96875 9 -4.625 C 9.019531 -6.28125 9.03125 -7.960938 9.03125 -9.671875 C 9.03125 -11.390625 9.015625 -13.054688 8.984375 -14.671875 C 7.398438 -14.648438 5.910156 -14.613281 4.515625 -14.5625 C 3.128906 -14.507812 1.769531 -14.441406 0.4375 -14.359375 C 0.53125 -15.003906 0.53125 -15.644531 0.4375 -16.28125 C 2.726562 -16.25 4.925781 -16.226562 7.03125 -16.21875 C 9.144531 -16.21875 11.25 -16.21875 13.34375 -16.21875 C 15.445312 -16.226562 17.644531 -16.25 19.9375 -16.28125 C 19.84375 -15.644531 19.84375 -15.003906 19.9375 -14.359375 C 18.59375 -14.441406 17.222656 -14.507812 15.828125 -14.5625 C 14.429688 -14.613281 12.929688 -14.648438 11.328125 -14.671875 C 11.316406 -13.046875 11.3125 -11.375 11.3125 -9.65625 C 11.3125 -7.9375 11.320312 -6.253906 11.34375 -4.609375 C 11.363281 -2.960938 11.394531 -1.425781 11.4375 0 Z M 8.921875 0 "/></g></g></g><g fill="#003082" fill-opacity="0.4196"><g transform="translate(315.138657, 235.679314)"><g><path d="M 2.40625 0 C 2.4375 -1.175781 2.460938 -2.460938 2.484375 -3.859375 C 2.503906 -5.253906 2.515625 -6.679688 2.515625 -8.140625 C 2.515625 -9.597656 2.503906 -11.023438 2.484375 -12.421875 C 2.460938 -13.816406 2.4375 -15.101562 2.40625 -16.28125 C 3.289062 -16.164062 4.117188 -16.164062 4.890625 -16.28125 C 4.859375 -15.101562 4.832031 -13.816406 4.8125 -12.421875 C 4.800781 -11.023438 4.796875 -9.59375 4.796875 -8.125 C 4.796875 -6.65625 4.804688 -5.226562 4.828125 -3.84375 C 4.859375 -2.457031 4.894531 -1.175781 4.9375 0 Z M 2.40625 0 "/></g></g></g><g fill="#003082" fill-opacity="0.4196"><g transform="translate(323.432928, 235.679314)"><g><path d="M 12.03125 0.265625 C 9.789062 0.265625 7.863281 -0.0625 6.25 -0.71875 C 4.644531 -1.382812 3.414062 -2.34375 2.5625 -3.59375 C 1.707031 -4.851562 1.28125 -6.367188 1.28125 -8.140625 C 1.28125 -9.941406 1.707031 -11.46875 2.5625 -12.71875 C 3.414062 -13.976562 4.644531 -14.9375 6.25 -15.59375 C 7.851562 -16.25 9.78125 -16.578125 12.03125 -16.578125 C 14.289062 -16.578125 16.21875 -16.242188 17.8125 -15.578125 C 19.414062 -14.910156 20.640625 -13.945312 21.484375 -12.6875 C 22.335938 -11.4375 22.765625 -9.921875 22.765625 -8.140625 C 22.765625 -6.367188 22.335938 -4.851562 21.484375 -3.59375 C 20.640625 -2.34375 19.414062 -1.382812 17.8125 -0.71875 C 16.21875 -0.0625 14.289062 0.265625 12.03125 0.265625 Z M 12.03125 -1.328125 C 13.769531 -1.328125 15.265625 -1.585938 16.515625 -2.109375 C 17.773438 -2.628906 18.742188 -3.394531 19.421875 -4.40625 C 20.097656 -5.414062 20.4375 -6.644531 20.4375 -8.09375 C 20.4375 -9.539062 20.097656 -10.773438 19.421875 -11.796875 C 18.742188 -12.828125 17.773438 -13.617188 16.515625 -14.171875 C 15.265625 -14.722656 13.769531 -15 12.03125 -15 C 10.28125 -15 8.773438 -14.722656 7.515625 -14.171875 C 6.253906 -13.617188 5.289062 -12.828125 4.625 -11.796875 C 3.957031 -10.773438 3.625 -9.539062 3.625 -8.09375 C 3.625 -5.925781 4.363281 -4.253906 5.84375 -3.078125 C 7.332031 -1.910156 9.394531 -1.328125 12.03125 -1.328125 Z M 12.03125 -1.328125 "/></g></g></g><g fill="#003082" fill-opacity="0.4196"><g transform="translate(348.426009, 235.679314)"><g><path d="M 18.03125 0 C 15.800781 -2.4375 13.5625 -4.859375 11.3125 -7.265625 C 9.0625 -9.679688 6.78125 -12.082031 4.46875 -14.46875 C 4.4375 -12.0625 4.425781 -9.648438 4.4375 -7.234375 C 4.457031 -4.828125 4.5 -2.414062 4.5625 0 L 2.171875 0 C 2.253906 -5.414062 2.253906 -10.84375 2.171875 -16.28125 C 2.628906 -16.238281 3.1875 -16.210938 3.84375 -16.203125 C 4.5 -16.203125 5.054688 -16.226562 5.515625 -16.28125 C 7.722656 -13.820312 9.953125 -11.378906 12.203125 -8.953125 C 14.460938 -6.523438 16.738281 -4.101562 19.03125 -1.6875 C 19.0625 -4.113281 19.066406 -6.539062 19.046875 -8.96875 C 19.035156 -11.394531 18.992188 -13.832031 18.921875 -16.28125 C 19.742188 -16.175781 20.53125 -16.175781 21.28125 -16.28125 C 21.226562 -10.84375 21.25 -5.414062 21.34375 0 Z M 18.03125 0 "/></g></g></g><g fill="#002d5e" fill-opacity="1"><g transform="translate(65.329081, 235.519215)"><g><path d="M 8.921875 0 C 8.960938 -1.425781 8.988281 -2.96875 9 -4.625 C 9.019531 -6.28125 9.03125 -7.960938 9.03125 -9.671875 C 9.03125 -11.390625 9.015625 -13.054688 8.984375 -14.671875 C 7.398438 -14.648438 5.910156 -14.613281 4.515625 -14.5625 C 3.128906 -14.507812 1.769531 -14.441406 0.4375 -14.359375 C 0.53125 -15.003906 0.53125 -15.644531 0.4375 -16.28125 C 2.726562 -16.25 4.925781 -16.226562 7.03125 -16.21875 C 9.144531 -16.21875 11.25 -16.21875 13.34375 -16.21875 C 15.445312 -16.226562 17.644531 -16.25 19.9375 -16.28125 C 19.84375 -15.644531 19.84375 -15.003906 19.9375 -14.359375 C 18.59375 -14.441406 17.222656 -14.507812 15.828125 -14.5625 C 14.429688 -14.613281 12.929688 -14.648438 11.328125 -14.671875 C 11.316406 -13.046875 11.3125 -11.375 11.3125 -9.65625 C 11.3125 -7.9375 11.320312 -6.253906 11.34375 -4.609375 C 11.363281 -2.960938 11.394531 -1.425781 11.4375 0 Z M 8.921875 0 "/></g></g></g><g fill="#002d5e" fill-opacity="1"><g transform="translate(86.650631, 235.519215)"><g><path d="M 2.171875 0 C 2.203125 -1.175781 2.226562 -2.460938 2.25 -3.859375 C 2.269531 -5.253906 2.28125 -6.679688 2.28125 -8.140625 C 2.28125 -9.597656 2.269531 -11.023438 2.25 -12.421875 C 2.226562 -13.816406 2.203125 -15.101562 2.171875 -16.28125 C 3.316406 -16.269531 4.398438 -16.265625 5.421875 -16.265625 C 6.441406 -16.273438 7.453125 -16.285156 8.453125 -16.296875 C 9.453125 -16.316406 10.5 -16.328125 11.59375 -16.328125 C 14.351562 -16.328125 16.414062 -15.953125 17.78125 -15.203125 C 19.144531 -14.453125 19.828125 -13.242188 19.828125 -11.578125 C 19.828125 -10.691406 19.640625 -9.957031 19.265625 -9.375 C 18.898438 -8.789062 18.414062 -8.320312 17.8125 -7.96875 C 17.21875 -7.625 16.566406 -7.367188 15.859375 -7.203125 C 15.148438 -7.035156 14.445312 -6.925781 13.75 -6.875 C 13.050781 -6.820312 12.421875 -6.796875 11.859375 -6.796875 L 11.859375 -6.609375 C 13.847656 -6.347656 15.570312 -5.644531 17.03125 -4.5 C 18.5 -3.351562 19.660156 -1.851562 20.515625 0 L 17.375 0 C 16.894531 -1.488281 16.257812 -2.6875 15.46875 -3.59375 C 14.6875 -4.5 13.695312 -5.164062 12.5 -5.59375 C 11.300781 -6.019531 9.84375 -6.257812 8.125 -6.3125 C 7.28125 -6.332031 6.585938 -6.347656 6.046875 -6.359375 C 5.515625 -6.367188 5.003906 -6.375 4.515625 -6.375 C 4.523438 -5.0625 4.539062 -3.910156 4.5625 -2.921875 C 4.59375 -1.941406 4.617188 -0.96875 4.640625 0 Z M 4.484375 -7.875 C 5.460938 -7.863281 6.445312 -7.84375 7.4375 -7.8125 C 8.425781 -7.789062 9.28125 -7.78125 10 -7.78125 C 11.59375 -7.78125 12.9375 -7.875 14.03125 -8.0625 C 15.132812 -8.257812 15.96875 -8.617188 16.53125 -9.140625 C 17.101562 -9.671875 17.390625 -10.414062 17.390625 -11.375 C 17.390625 -12.59375 16.875 -13.445312 15.84375 -13.9375 C 14.8125 -14.4375 13.375 -14.6875 11.53125 -14.6875 C 10.300781 -14.6875 9.082031 -14.679688 7.875 -14.671875 C 6.675781 -14.671875 5.5625 -14.671875 4.53125 -14.671875 C 4.519531 -13.566406 4.507812 -12.453125 4.5 -11.328125 C 4.488281 -10.203125 4.484375 -9.050781 4.484375 -7.875 Z M 4.484375 -7.875 "/></g></g></g><g fill="#002d5e" fill-opacity="1"><g transform="translate(109.277123, 235.519215)"><g><path d="M 20.578125 0 L 17.875 0 C 17.519531 -0.78125 17.207031 -1.476562 16.9375 -2.09375 C 16.664062 -2.71875 16.394531 -3.332031 16.125 -3.9375 C 15.0625 -3.945312 13.878906 -3.957031 12.578125 -3.96875 C 11.285156 -3.976562 9.992188 -3.976562 8.703125 -3.96875 C 7.410156 -3.957031 6.222656 -3.945312 5.140625 -3.9375 L 3.296875 0 L 0.6875 0 C 2.070312 -2.695312 3.425781 -5.410156 4.75 -8.140625 C 6.082031 -10.867188 7.390625 -13.582031 8.671875 -16.28125 C 9.023438 -16.25 9.429688 -16.222656 9.890625 -16.203125 C 10.359375 -16.179688 10.820312 -16.175781 11.28125 -16.1875 C 11.75 -16.207031 12.160156 -16.238281 12.515625 -16.28125 C 13.816406 -13.582031 15.140625 -10.867188 16.484375 -8.140625 C 17.828125 -5.410156 19.191406 -2.695312 20.578125 0 Z M 5.8125 -5.421875 C 6.789062 -5.410156 7.84375 -5.398438 8.96875 -5.390625 C 10.101562 -5.378906 11.226562 -5.378906 12.34375 -5.390625 C 13.46875 -5.398438 14.507812 -5.410156 15.46875 -5.421875 C 15.15625 -6.128906 14.785156 -6.914062 14.359375 -7.78125 C 13.929688 -8.65625 13.410156 -9.6875 12.796875 -10.875 C 12.179688 -12.0625 11.425781 -13.484375 10.53125 -15.140625 C 9.8125 -13.796875 9.050781 -12.273438 8.25 -10.578125 C 7.457031 -8.890625 6.644531 -7.171875 5.8125 -5.421875 Z M 5.8125 -5.421875 "/></g></g></g><g fill="#002d5e" fill-opacity="1"><g transform="translate(131.483372, 235.519215)"><g><path d="M 18.03125 0 C 15.800781 -2.4375 13.5625 -4.859375 11.3125 -7.265625 C 9.0625 -9.679688 6.78125 -12.082031 4.46875 -14.46875 C 4.4375 -12.0625 4.425781 -9.648438 4.4375 -7.234375 C 4.457031 -4.828125 4.5 -2.414062 4.5625 0 L 2.171875 0 C 2.253906 -5.414062 2.253906 -10.84375 2.171875 -16.28125 C 2.628906 -16.238281 3.1875 -16.210938 3.84375 -16.203125 C 4.5 -16.203125 5.054688 -16.226562 5.515625 -16.28125 C 7.722656 -13.820312 9.953125 -11.378906 12.203125 -8.953125 C 14.460938 -6.523438 16.738281 -4.101562 19.03125 -1.6875 C 19.0625 -4.113281 19.066406 -6.539062 19.046875 -8.96875 C 19.035156 -11.394531 18.992188 -13.832031 18.921875 -16.28125 C 19.742188 -16.175781 20.53125 -16.175781 21.28125 -16.28125 C 21.226562 -10.84375 21.25 -5.414062 21.34375 0 Z M 18.03125 0 "/></g></g></g><g fill="#002d5e" fill-opacity="1"><g transform="translate(155.923511, 235.519215)"><g><path d="M 12.125 0.21875 C 10.070312 0.21875 8.191406 0.0390625 6.484375 -0.3125 C 4.773438 -0.664062 3.21875 -1.109375 1.8125 -1.640625 C 1.90625 -2.429688 1.90625 -3.21875 1.8125 -4 C 2.332031 -3.601562 2.976562 -3.242188 3.75 -2.921875 C 4.519531 -2.609375 5.378906 -2.34375 6.328125 -2.125 C 7.285156 -1.914062 8.273438 -1.75 9.296875 -1.625 C 10.328125 -1.507812 11.335938 -1.453125 12.328125 -1.453125 C 14.390625 -1.453125 15.882812 -1.6875 16.8125 -2.15625 C 17.738281 -2.625 18.203125 -3.328125 18.203125 -4.265625 C 18.203125 -5.117188 17.890625 -5.742188 17.265625 -6.140625 C 16.640625 -6.546875 15.75 -6.832031 14.59375 -7 C 13.4375 -7.164062 12.050781 -7.3125 10.4375 -7.4375 C 9.09375 -7.550781 7.878906 -7.6875 6.796875 -7.84375 C 5.710938 -8.007812 4.785156 -8.25 4.015625 -8.5625 C 3.253906 -8.875 2.671875 -9.296875 2.265625 -9.828125 C 1.859375 -10.367188 1.65625 -11.066406 1.65625 -11.921875 C 1.65625 -14.992188 4.507812 -16.53125 10.21875 -16.53125 C 11.601562 -16.53125 12.820312 -16.460938 13.875 -16.328125 C 14.9375 -16.191406 15.9375 -16.023438 16.875 -15.828125 C 17.8125 -15.628906 18.78125 -15.410156 19.78125 -15.171875 C 19.71875 -14.765625 19.691406 -14.390625 19.703125 -14.046875 C 19.710938 -13.710938 19.738281 -13.375 19.78125 -13.03125 C 18.53125 -13.457031 17.09375 -13.867188 15.46875 -14.265625 C 13.851562 -14.671875 12.082031 -14.875 10.15625 -14.875 C 8.0625 -14.875 6.523438 -14.632812 5.546875 -14.15625 C 4.566406 -13.6875 4.078125 -12.960938 4.078125 -11.984375 C 4.078125 -11.265625 4.328125 -10.703125 4.828125 -10.296875 C 5.328125 -9.890625 6.109375 -9.585938 7.171875 -9.390625 C 8.234375 -9.191406 9.601562 -9.023438 11.28125 -8.890625 C 12.519531 -8.785156 13.695312 -8.660156 14.8125 -8.515625 C 15.9375 -8.367188 16.929688 -8.144531 17.796875 -7.84375 C 18.660156 -7.539062 19.34375 -7.109375 19.84375 -6.546875 C 20.34375 -5.984375 20.59375 -5.238281 20.59375 -4.3125 C 20.59375 -2.78125 19.878906 -1.640625 18.453125 -0.890625 C 17.023438 -0.148438 14.914062 0.21875 12.125 0.21875 Z M 12.125 0.21875 "/></g></g></g><g fill="#002d5e" fill-opacity="1"><g transform="translate(179.125057, 235.519215)"><g><path d="M 11.65625 -16.328125 C 14.207031 -16.328125 16.125 -15.875 17.40625 -14.96875 C 18.695312 -14.070312 19.34375 -12.6875 19.34375 -10.8125 C 19.34375 -9.707031 19.082031 -8.742188 18.5625 -7.921875 C 18.039062 -7.097656 17.226562 -6.453125 16.125 -5.984375 C 15.03125 -5.515625 13.609375 -5.28125 11.859375 -5.28125 L 4.515625 -5.28125 C 4.523438 -4.375 4.546875 -3.472656 4.578125 -2.578125 C 4.609375 -1.679688 4.640625 -0.820312 4.671875 0 L 2.171875 0 C 2.203125 -1.070312 2.226562 -2.296875 2.25 -3.671875 C 2.269531 -5.054688 2.28125 -6.492188 2.28125 -7.984375 C 2.28125 -9.472656 2.269531 -10.929688 2.25 -12.359375 C 2.226562 -13.796875 2.203125 -15.101562 2.171875 -16.28125 C 3.347656 -16.269531 4.441406 -16.265625 5.453125 -16.265625 C 6.472656 -16.273438 7.484375 -16.285156 8.484375 -16.296875 C 9.492188 -16.316406 10.550781 -16.328125 11.65625 -16.328125 Z M 11.328125 -6.765625 C 15.097656 -6.765625 16.984375 -8.070312 16.984375 -10.6875 C 16.984375 -12.039062 16.5 -13.046875 15.53125 -13.703125 C 14.5625 -14.359375 13.140625 -14.6875 11.265625 -14.6875 C 10.179688 -14.6875 9.050781 -14.679688 7.875 -14.671875 C 6.707031 -14.671875 5.578125 -14.671875 4.484375 -14.671875 C 4.441406 -12.097656 4.441406 -9.476562 4.484375 -6.8125 C 5.640625 -6.800781 6.78125 -6.789062 7.90625 -6.78125 C 9.039062 -6.769531 10.179688 -6.765625 11.328125 -6.765625 Z M 11.328125 -6.765625 "/></g></g></g><g fill="#002d5e" fill-opacity="1"><g transform="translate(200.380257, 235.519215)"><g><path d="M 12.03125 0.265625 C 9.789062 0.265625 7.863281 -0.0625 6.25 -0.71875 C 4.644531 -1.382812 3.414062 -2.34375 2.5625 -3.59375 C 1.707031 -4.851562 1.28125 -6.367188 1.28125 -8.140625 C 1.28125 -9.941406 1.707031 -11.46875 2.5625 -12.71875 C 3.414062 -13.976562 4.644531 -14.9375 6.25 -15.59375 C 7.851562 -16.25 9.78125 -16.578125 12.03125 -16.578125 C 14.289062 -16.578125 16.21875 -16.242188 17.8125 -15.578125 C 19.414062 -14.910156 20.640625 -13.945312 21.484375 -12.6875 C 22.335938 -11.4375 22.765625 -9.921875 22.765625 -8.140625 C 22.765625 -6.367188 22.335938 -4.851562 21.484375 -3.59375 C 20.640625 -2.34375 19.414062 -1.382812 17.8125 -0.71875 C 16.21875 -0.0625 14.289062 0.265625 12.03125 0.265625 Z M 12.03125 -1.328125 C 13.769531 -1.328125 15.265625 -1.585938 16.515625 -2.109375 C 17.773438 -2.628906 18.742188 -3.394531 19.421875 -4.40625 C 20.097656 -5.414062 20.4375 -6.644531 20.4375 -8.09375 C 20.4375 -9.539062 20.097656 -10.773438 19.421875 -11.796875 C 18.742188 -12.828125 17.773438 -13.617188 16.515625 -14.171875 C 15.265625 -14.722656 13.769531 -15 12.03125 -15 C 10.28125 -15 8.773438 -14.722656 7.515625 -14.171875 C 6.253906 -13.617188 5.289062 -12.828125 4.625 -11.796875 C 3.957031 -10.773438 3.625 -9.539062 3.625 -8.09375 C 3.625 -5.925781 4.363281 -4.253906 5.84375 -3.078125 C 7.332031 -1.910156 9.394531 -1.328125 12.03125 -1.328125 Z M 12.03125 -1.328125 "/></g></g></g><g fill="#002d5e" fill-opacity="1"><g transform="translate(225.373338, 235.519215)"><g><path d="M 2.171875 0 C 2.203125 -1.175781 2.226562 -2.460938 2.25 -3.859375 C 2.269531 -5.253906 2.28125 -6.679688 2.28125 -8.140625 C 2.28125 -9.597656 2.269531 -11.023438 2.25 -12.421875 C 2.226562 -13.816406 2.203125 -15.101562 2.171875 -16.28125 C 3.316406 -16.269531 4.398438 -16.265625 5.421875 -16.265625 C 6.441406 -16.273438 7.453125 -16.285156 8.453125 -16.296875 C 9.453125 -16.316406 10.5 -16.328125 11.59375 -16.328125 C 14.351562 -16.328125 16.414062 -15.953125 17.78125 -15.203125 C 19.144531 -14.453125 19.828125 -13.242188 19.828125 -11.578125 C 19.828125 -10.691406 19.640625 -9.957031 19.265625 -9.375 C 18.898438 -8.789062 18.414062 -8.320312 17.8125 -7.96875 C 17.21875 -7.625 16.566406 -7.367188 15.859375 -7.203125 C 15.148438 -7.035156 14.445312 -6.925781 13.75 -6.875 C 13.050781 -6.820312 12.421875 -6.796875 11.859375 -6.796875 L 11.859375 -6.609375 C 13.847656 -6.347656 15.570312 -5.644531 17.03125 -4.5 C 18.5 -3.351562 19.660156 -1.851562 20.515625 0 L 17.375 0 C 16.894531 -1.488281 16.257812 -2.6875 15.46875 -3.59375 C 14.6875 -4.5 13.695312 -5.164062 12.5 -5.59375 C 11.300781 -6.019531 9.84375 -6.257812 8.125 -6.3125 C 7.28125 -6.332031 6.585938 -6.347656 6.046875 -6.359375 C 5.515625 -6.367188 5.003906 -6.375 4.515625 -6.375 C 4.523438 -5.0625 4.539062 -3.910156 4.5625 -2.921875 C 4.59375 -1.941406 4.617188 -0.96875 4.640625 0 Z M 4.484375 -7.875 C 5.460938 -7.863281 6.445312 -7.84375 7.4375 -7.8125 C 8.425781 -7.789062 9.28125 -7.78125 10 -7.78125 C 11.59375 -7.78125 12.9375 -7.875 14.03125 -8.0625 C 15.132812 -8.257812 15.96875 -8.617188 16.53125 -9.140625 C 17.101562 -9.671875 17.390625 -10.414062 17.390625 -11.375 C 17.390625 -12.59375 16.875 -13.445312 15.84375 -13.9375 C 14.8125 -14.4375 13.375 -14.6875 11.53125 -14.6875 C 10.300781 -14.6875 9.082031 -14.679688 7.875 -14.671875 C 6.675781 -14.671875 5.5625 -14.671875 4.53125 -14.671875 C 4.519531 -13.566406 4.507812 -12.453125 4.5 -11.328125 C 4.488281 -10.203125 4.484375 -9.050781 4.484375 -7.875 Z M 4.484375 -7.875 "/></g></g></g><g fill="#002d5e" fill-opacity="1"><g transform="translate(247.99983, 235.519215)"><g><path d="M 8.921875 0 C 8.960938 -1.425781 8.988281 -2.96875 9 -4.625 C 9.019531 -6.28125 9.03125 -7.960938 9.03125 -9.671875 C 9.03125 -11.390625 9.015625 -13.054688 8.984375 -14.671875 C 7.398438 -14.648438 5.910156 -14.613281 4.515625 -14.5625 C 3.128906 -14.507812 1.769531 -14.441406 0.4375 -14.359375 C 0.53125 -15.003906 0.53125 -15.644531 0.4375 -16.28125 C 2.726562 -16.25 4.925781 -16.226562 7.03125 -16.21875 C 9.144531 -16.21875 11.25 -16.21875 13.34375 -16.21875 C 15.445312 -16.226562 17.644531 -16.25 19.9375 -16.28125 C 19.84375 -15.644531 19.84375 -15.003906 19.9375 -14.359375 C 18.59375 -14.441406 17.222656 -14.507812 15.828125 -14.5625 C 14.429688 -14.613281 12.929688 -14.648438 11.328125 -14.671875 C 11.316406 -13.046875 11.3125 -11.375 11.3125 -9.65625 C 11.3125 -7.9375 11.320312 -6.253906 11.34375 -4.609375 C 11.363281 -2.960938 11.394531 -1.425781 11.4375 0 Z M 8.921875 0 "/></g></g></g><g fill="#002d5e" fill-opacity="1"><g transform="translate(269.321368, 235.519215)"><g><path d="M 20.578125 0 L 17.875 0 C 17.519531 -0.78125 17.207031 -1.476562 16.9375 -2.09375 C 16.664062 -2.71875 16.394531 -3.332031 16.125 -3.9375 C 15.0625 -3.945312 13.878906 -3.957031 12.578125 -3.96875 C 11.285156 -3.976562 9.992188 -3.976562 8.703125 -3.96875 C 7.410156 -3.957031 6.222656 -3.945312 5.140625 -3.9375 L 3.296875 0 L 0.6875 0 C 2.070312 -2.695312 3.425781 -5.410156 4.75 -8.140625 C 6.082031 -10.867188 7.390625 -13.582031 8.671875 -16.28125 C 9.023438 -16.25 9.429688 -16.222656 9.890625 -16.203125 C 10.359375 -16.179688 10.820312 -16.175781 11.28125 -16.1875 C 11.75 -16.207031 12.160156 -16.238281 12.515625 -16.28125 C 13.816406 -13.582031 15.140625 -10.867188 16.484375 -8.140625 C 17.828125 -5.410156 19.191406 -2.695312 20.578125 0 Z M 5.8125 -5.421875 C 6.789062 -5.410156 7.84375 -5.398438 8.96875 -5.390625 C 10.101562 -5.378906 11.226562 -5.378906 12.34375 -5.390625 C 13.46875 -5.398438 14.507812 -5.410156 15.46875 -5.421875 C 15.15625 -6.128906 14.785156 -6.914062 14.359375 -7.78125 C 13.929688 -8.65625 13.410156 -9.6875 12.796875 -10.875 C 12.179688 -12.0625 11.425781 -13.484375 10.53125 -15.140625 C 9.8125 -13.796875 9.050781 -12.273438 8.25 -10.578125 C 7.457031 -8.890625 6.644531 -7.171875 5.8125 -5.421875 Z M 5.8125 -5.421875 "/></g></g></g><g fill="#002d5e" fill-opacity="1"><g transform="translate(291.527617, 235.519215)"><g><path d="M 8.921875 0 C 8.960938 -1.425781 8.988281 -2.96875 9 -4.625 C 9.019531 -6.28125 9.03125 -7.960938 9.03125 -9.671875 C 9.03125 -11.390625 9.015625 -13.054688 8.984375 -14.671875 C 7.398438 -14.648438 5.910156 -14.613281 4.515625 -14.5625 C 3.128906 -14.507812 1.769531 -14.441406 0.4375 -14.359375 C 0.53125 -15.003906 0.53125 -15.644531 0.4375 -16.28125 C 2.726562 -16.25 4.925781 -16.226562 7.03125 -16.21875 C 9.144531 -16.21875 11.25 -16.21875 13.34375 -16.21875 C 15.445312 -16.226562 17.644531 -16.25 19.9375 -16.28125 C 19.84375 -15.644531 19.84375 -15.003906 19.9375 -14.359375 C 18.59375 -14.441406 17.222656 -14.507812 15.828125 -14.5625 C 14.429688 -14.613281 12.929688 -14.648438 11.328125 -14.671875 C 11.316406 -13.046875 11.3125 -11.375 11.3125 -9.65625 C 11.3125 -7.9375 11.320312 -6.253906 11.34375 -4.609375 C 11.363281 -2.960938 11.394531 -1.425781 11.4375 0 Z M 8.921875 0 "/></g></g></g><g fill="#002d5e" fill-opacity="1"><g transform="translate(312.849178, 235.519215)"><g><path d="M 2.40625 0 C 2.4375 -1.175781 2.460938 -2.460938 2.484375 -3.859375 C 2.503906 -5.253906 2.515625 -6.679688 2.515625 -8.140625 C 2.515625 -9.597656 2.503906 -11.023438 2.484375 -12.421875 C 2.460938 -13.816406 2.4375 -15.101562 2.40625 -16.28125 C 3.289062 -16.164062 4.117188 -16.164062 4.890625 -16.28125 C 4.859375 -15.101562 4.832031 -13.816406 4.8125 -12.421875 C 4.800781 -11.023438 4.796875 -9.59375 4.796875 -8.125 C 4.796875 -6.65625 4.804688 -5.226562 4.828125 -3.84375 C 4.859375 -2.457031 4.894531 -1.175781 4.9375 0 Z M 2.40625 0 "/></g></g></g><g fill="#002d5e" fill-opacity="1"><g transform="translate(321.143449, 235.519215)"><g><path d="M 12.03125 0.265625 C 9.789062 0.265625 7.863281 -0.0625 6.25 -0.71875 C 4.644531 -1.382812 3.414062 -2.34375 2.5625 -3.59375 C 1.707031 -4.851562 1.28125 -6.367188 1.28125 -8.140625 C 1.28125 -9.941406 1.707031 -11.46875 2.5625 -12.71875 C 3.414062 -13.976562 4.644531 -14.9375 6.25 -15.59375 C 7.851562 -16.25 9.78125 -16.578125 12.03125 -16.578125 C 14.289062 -16.578125 16.21875 -16.242188 17.8125 -15.578125 C 19.414062 -14.910156 20.640625 -13.945312 21.484375 -12.6875 C 22.335938 -11.4375 22.765625 -9.921875 22.765625 -8.140625 C 22.765625 -6.367188 22.335938 -4.851562 21.484375 -3.59375 C 20.640625 -2.34375 19.414062 -1.382812 17.8125 -0.71875 C 16.21875 -0.0625 14.289062 0.265625 12.03125 0.265625 Z M 12.03125 -1.328125 C 13.769531 -1.328125 15.265625 -1.585938 16.515625 -2.109375 C 17.773438 -2.628906 18.742188 -3.394531 19.421875 -4.40625 C 20.097656 -5.414062 20.4375 -6.644531 20.4375 -8.09375 C 20.4375 -9.539062 20.097656 -10.773438 19.421875 -11.796875 C 18.742188 -12.828125 17.773438 -13.617188 16.515625 -14.171875 C 15.265625 -14.722656 13.769531 -15 12.03125 -15 C 10.28125 -15 8.773438 -14.722656 7.515625 -14.171875 C 6.253906 -13.617188 5.289062 -12.828125 4.625 -11.796875 C 3.957031 -10.773438 3.625 -9.539062 3.625 -8.09375 C 3.625 -5.925781 4.363281 -4.253906 5.84375 -3.078125 C 7.332031 -1.910156 9.394531 -1.328125 12.03125 -1.328125 Z M 12.03125 -1.328125 "/></g></g></g><g fill="#002d5e" fill-opacity="1"><g transform="translate(346.13653, 235.519215)"><g><path d="M 18.03125 0 C 15.800781 -2.4375 13.5625 -4.859375 11.3125 -7.265625 C 9.0625 -9.679688 6.78125 -12.082031 4.46875 -14.46875 C 4.4375 -12.0625 4.425781 -9.648438 4.4375 -7.234375 C 4.457031 -4.828125 4.5 -2.414062 4.5625 0 L 2.171875 0 C 2.253906 -5.414062 2.253906 -10.84375 2.171875 -16.28125 C 2.628906 -16.238281 3.1875 -16.210938 3.84375 -16.203125 C 4.5 -16.203125 5.054688 -16.226562 5.515625 -16.28125 C 7.722656 -13.820312 9.953125 -11.378906 12.203125 -8.953125 C 14.460938 -6.523438 16.738281 -4.101562 19.03125 -1.6875 C 19.0625 -4.113281 19.066406 -6.539062 19.046875 -8.96875 C 19.035156 -11.394531 18.992188 -13.832031 18.921875 -16.28125 C 19.742188 -16.175781 20.53125 -16.175781 21.28125 -16.28125 C 21.226562 -10.84375 21.25 -5.414062 21.34375 0 Z M 18.03125 0 "/></g></g></g></svg>